<?xml version="1.0" standalone="no"?> <!DOCTYPE svg PUBLIC "-//W3C//DTD SVG 20010904//EN" "http://www.w3.org/TR/2001/REC-SVG-20010904/DTD/svg10.dtd"> <svg version="1.0" xmlns="http://www.w3.org/2000/svg" width="1800.000000pt" height="786.000000pt" viewBox="0 0 1800.000000 786.000000" preserveAspectRatio="xMidYMid meet"> <g transform="translate(0.000000,786.000000) scale(0.100000,-0.100000)" fill="#ffffff" stroke="none"> <path d="M11731 6574 c-57 -30 -109 -58 -115 -62 -6 -5 -51 -26 -101 -46 -49 -21 -94 -42 -100 -45 -5 -4 -46 -23 -90 -41 -44 -19 -96 -44 -116 -56 -20 -13 -64 -34 -99 -49 -34 -14 -100 -44 -146 -65 -46 -22 -87 -40 -89 -40 -3 0 -36 -14 -73 -31 -62 -29 -83 -38 -152 -67 -14 -6 -35 -14 -48 -17 l-23 -7 3 -20 c2 -12 10 -24 18 -29 8 -4 58 -29 110 -54 52 -26 118 -60 147 -76 29 -16 58 -29 65 -29 7 0 26 -10 41 -23 l28 -22 -10 -28 c-6 -15 -15 -27 -20 -27 -5 0 -12 -8 -15 -17 -4 -10 -22 -36 -41 -58 -20 -22 -48 -58 -63 -80 -15 -22 -86 -120 -159 -217 -73 -98 -133 -180 -133 -183 0 -5 -152 -222 -270 -385 -86 -119 -210 -312 -210 -327 0 -14 -10 -16 -35 -7 -14 6 -96 120 -115 160 -3 5 -41 63 -85 128 -44 65 -84 125 -90 135 -5 9 -33 48 -61 86 -102 142 -154 216 -154 221 0 4 -106 150 -138 189 -4 6 -29 42 -56 82 -26 39 -55 78 -64 86 l-17 15 -337 5 -338 4 -10 -12 -10 -12 35 -44 c62 -77 142 -182 187 -245 60 -85 105 -147 161 -220 26 -35 47 -66 47 -69 0 -4 26 -41 58 -83 31 -42 80 -111 107 -152 27 -41 87 -127 134 -190 48 -63 103 -140 124 -170 72 -104 108 -155 125 -175 55 -65 112 -145 117 -166 l6 -24 -38 -53 c-43 -61 -267 -369 -375 -516 -40 -54 -94 -130 -120 -167 -25 -37 -58 -81 -72 -96 -15 -15 -43 -53 -64 -83 -20 -30 -69 -98 -107 -150 -39 -52 -86 -117 -105 -145 -19 -27 -40 -56 -46 -65 -11 -13 -90 -117 -156 -205 -12 -16 -40 -51 -61 -78 l-38 -47 3 -18 3 -17 53 0 c28 1 189 2 356 3 l303 2 45 68 c58 88 122 179 194 279 78 108 234 331 306 436 18 27 58 83 89 125 30 43 58 84 62 92 4 8 31 49 60 91 28 42 57 84 62 93 l10 16 20 -6 c17 -5 61 -62 87 -114 4 -8 37 -55 72 -105 36 -49 95 -135 132 -190 37 -55 100 -144 138 -197 211 -288 376 -524 376 -536 0 -5 10 -18 23 -29 l22 -21 358 -4 357 -5 0 19 c0 17 -55 95 -86 123 -7 6 -73 93 -149 195 -75 102 -156 212 -181 245 -25 33 -86 117 -137 188 -51 70 -138 192 -195 270 -57 78 -125 174 -152 212 -27 39 -53 75 -57 80 -5 6 -51 66 -102 135 -52 69 -99 130 -106 135 -6 6 -17 21 -24 33 l-13 24 85 111 c115 154 218 295 307 421 41 58 103 144 138 191 34 46 62 87 62 90 0 3 33 50 73 103 65 88 114 157 142 204 5 9 35 52 65 95 30 43 78 114 108 158 29 44 60 84 68 88 l15 8 76 -73 c43 -40 116 -110 163 -155 l85 -83 22 0 21 0 5 428 c3 235 9 481 15 547 6 66 12 197 14 290 l3 170 -20 2 c-11 1 -67 -23 -124 -53z"/> <path d="M457 5572 l-17 -3 0 -1569 c0 -863 -2 -1574 -5 -1582 -3 -7 -1 -19 4 -26 l8 -13 291 -2 292 -1 8 10 c4 5 5 218 2 474 -3 256 -4 470 -3 475 l3 10 518 0 517 0 63 18 c35 9 73 17 85 17 45 0 332 106 368 137 8 7 18 13 22 13 18 0 130 86 177 137 88 96 110 121 110 128 0 3 11 21 24 38 92 124 149 297 166 509 l11 136 -11 104 c-62 554 -380 859 -1015 972 l-90 17 -756 2 c-415 1 -763 1 -772 -1z m1078 -503 l440 -8 70 -20 c264 -77 391 -210 445 -466 26 -122 16 -252 -27 -352 -7 -17 -13 -34 -13 -37 0 -21 -73 -121 -125 -171 l-62 -61 -64 -31 c-86 -42 -132 -58 -209 -74 l-65 -14 -443 0 -444 0 0 619 0 619 14 8 c7 5 20 6 28 3 8 -4 213 -10 455 -15z"/> <path d="M4345 4839 c-221 -31 -294 -45 -343 -65 -18 -8 -42 -14 -53 -14 -10 0 -47 -13 -82 -29 -34 -16 -69 -32 -77 -35 -8 -3 -22 -10 -30 -15 -8 -5 -35 -18 -60 -30 -25 -12 -58 -31 -75 -41 -16 -10 -50 -30 -75 -43 l-45 -24 -3 -23 c-2 -13 0 -25 5 -29 13 -9 96 -138 125 -196 14 -27 39 -75 56 -105 l30 -55 21 -3 21 -3 38 28 c145 113 336 189 537 214 l80 10 120 -5 120 -6 50 -16 c28 -9 79 -30 114 -48 l63 -31 70 -64 69 -64 16 -36 c22 -51 52 -188 53 -238 l0 -42 -17 -9 -18 -9 -200 8 c-110 4 -270 8 -355 8 l-155 1 -120 -15 c-252 -33 -414 -91 -560 -200 -125 -94 -213 -253 -234 -422 l-10 -82 9 -88 c31 -271 146 -437 387 -557 197 -97 302 -121 533 -121 256 1 405 42 585 160 17 11 36 25 43 32 7 7 17 13 21 13 5 0 30 22 57 50 l48 49 13 -11 13 -11 -6 -123 -7 -123 264 -3 c280 -3 286 -3 291 15 2 7 0 372 -3 812 l-6 800 -17 50 c-8 28 -16 60 -16 73 0 56 -67 212 -134 316 -101 154 -321 305 -506 346 -19 4 -55 12 -80 18 -25 6 -91 18 -147 27 l-102 15 -128 -1 c-70 -1 -155 -5 -188 -10z m743 -1528 l3 -124 -17 -51 c-28 -88 -84 -160 -179 -231 -70 -53 -105 -70 -210 -107 l-60 -22 -170 0 -170 0 -75 36 c-116 54 -183 131 -214 241 l-17 58 17 62 17 62 31 40 c54 69 142 123 231 139 22 5 58 11 80 16 22 4 195 7 385 6 l345 -1 3 -124z"/> <path d="M12785 4833 c-144 -24 -297 -68 -366 -106 -24 -13 -71 -39 -104 -57 -162 -89 -322 -246 -422 -415 -22 -38 -83 -165 -83 -175 0 -5 -6 -24 -14 -42 -22 -51 -43 -135 -61 -233 l-15 -90 0 -115 c0 -63 5 -142 11 -175 6 -33 14 -85 18 -115 9 -60 17 -83 67 -205 40 -98 47 -111 109 -205 l49 -75 107 -107 108 -106 68 -40 c89 -52 214 -117 239 -125 10 -3 44 -15 74 -27 94 -37 276 -71 460 -85 l85 -7 93 16 c50 9 106 16 123 16 37 0 151 27 197 46 18 8 39 14 47 14 14 0 134 51 165 71 8 5 25 13 37 19 81 34 313 224 313 255 0 4 -42 51 -93 104 -52 53 -123 128 -158 166 -35 39 -71 71 -80 73 l-17 3 -43 -44 c-93 -92 -219 -162 -384 -211 -103 -30 -389 -28 -475 4 -76 28 -164 69 -232 108 -134 77 -290 293 -292 405 l-1 41 957 -3 958 -3 6 15 c16 42 -20 437 -49 537 -40 139 -65 198 -135 327 -154 280 -453 477 -832 547 l-85 16 -130 -1 c-71 -1 -170 -8 -220 -16z m306 -454 c171 -22 277 -76 409 -209 l75 -75 31 -65 c17 -36 40 -100 50 -143 l18 -77 -10 -10 -9 -9 -668 -2 -668 -2 -11 11 -11 11 12 48 c12 51 20 69 71 173 123 248 408 388 711 349z"/> <path d="M15950 4839 c-25 -5 -67 -11 -95 -15 -64 -8 -245 -63 -266 -81 -8 -7 -21 -13 -27 -13 -19 0 -169 -118 -211 -166 l-40 -46 -13 4 -13 5 0 144 0 144 -272 3 -272 2 -9 -17 -9 -18 8 -150 c9 -179 10 -1914 1 -2099 l-7 -129 10 -14 11 -14 277 -1 c153 0 280 2 283 5 3 3 7 324 8 714 l3 708 20 65 c19 64 37 111 54 140 4 8 18 33 29 55 54 98 187 200 335 256 l60 23 160 1 160 0 56 -22 c30 -12 71 -31 90 -42 19 -11 43 -25 54 -30 12 -5 43 -31 71 -59 l50 -50 31 -74 c16 -40 37 -96 46 -124 l17 -52 0 -755 0 -756 283 -3 c155 -2 288 -1 296 3 l13 6 -1 699 -1 699 -11 125 c-18 226 -55 355 -141 501 l-59 100 -57 57 c-64 64 -171 138 -247 172 -27 13 -58 26 -67 31 -40 20 -140 49 -170 49 -18 1 -62 7 -98 15 l-65 14 -115 -1 c-63 0 -135 -4 -160 -9z"/> <path d="M5928 4813 l-10 -13 26 -47 c29 -53 109 -217 149 -303 13 -30 37 -82 52 -115 15 -33 44 -96 65 -140 21 -44 48 -105 60 -135 13 -30 33 -77 45 -105 13 -27 33 -75 45 -105 12 -30 35 -82 50 -115 29 -63 51 -112 95 -210 14 -33 32 -73 40 -90 31 -67 108 -234 136 -292 16 -35 29 -66 29 -69 0 -4 12 -32 26 -63 48 -103 61 -131 136 -301 23 -52 115 -247 129 -272 5 -10 9 -32 9 -50 l0 -33 -33 -65 c-106 -209 -210 -303 -363 -330 l-62 -11 -73 12 -74 11 -62 31 c-34 16 -87 52 -117 78 -30 27 -61 49 -69 49 l-15 0 -71 -142 c-90 -179 -122 -241 -139 -261 l-14 -16 9 -15 c10 -18 93 -73 157 -105 355 -174 769 -153 1051 53 72 53 205 197 205 222 0 4 6 15 14 23 35 41 125 220 181 361 20 51 35 87 61 145 9 22 23 54 30 70 7 17 24 55 37 85 14 30 35 80 47 110 12 30 28 69 35 85 7 17 25 57 40 90 15 33 36 80 47 105 11 25 26 58 34 73 8 16 14 36 14 46 0 9 4 21 9 27 10 11 81 173 81 186 0 5 14 39 31 76 18 37 38 82 45 100 16 36 37 87 58 135 8 17 22 52 31 77 22 57 35 88 76 175 33 72 53 118 75 170 17 42 62 148 89 210 9 19 22 49 29 67 8 18 23 53 34 78 11 25 32 72 47 105 34 78 44 100 99 216 25 53 46 106 46 118 l0 21 -290 0 -289 0 -9 -17 c-5 -10 -17 -43 -27 -73 -10 -30 -24 -70 -31 -87 -8 -18 -20 -48 -27 -65 -8 -18 -21 -49 -29 -68 -9 -19 -26 -60 -38 -90 -12 -30 -32 -77 -45 -105 -12 -27 -39 -90 -60 -140 -20 -49 -47 -112 -60 -140 -12 -27 -29 -68 -37 -90 -26 -66 -89 -217 -113 -270 -12 -27 -30 -70 -40 -95 -9 -25 -23 -58 -30 -75 -7 -16 -21 -50 -30 -75 -10 -25 -23 -56 -30 -70 -7 -14 -31 -77 -54 -140 -23 -63 -47 -125 -52 -138 l-9 -23 -22 3 -22 3 -23 65 c-13 36 -27 74 -32 85 -20 41 -59 132 -80 185 -13 30 -29 71 -38 90 -29 67 -41 96 -73 175 -18 44 -45 107 -60 140 -15 33 -42 96 -60 140 -17 44 -40 98 -50 120 -66 146 -97 216 -115 260 -8 17 -24 55 -38 85 -14 30 -48 111 -77 180 -29 69 -62 147 -74 173 l-21 48 -20 4 c-11 3 -148 6 -303 7 l-284 3 -10 -12z"/> </g> </svg>