<?xml version="1.0" encoding="UTF-8"?>
<svg xmlns="http://www.w3.org/2000/svg" xmlns:xlink="http://www.w3.org/1999/xlink" width="2000pt" height="818pt" viewBox="0 0 2000 818" version="1.1">
<g id="surface1">
<path style=" stroke:none;fill-rule:evenodd;fill:rgb(96.899414%,97.299194%,97.299194%);fill-opacity:1;" d="M 1000 404 L 1000 818 L 2000 818 L 2000 404 L 1000 404 "/>
<path style=" stroke:none;fill-rule:evenodd;fill:rgb(11.799622%,12.199402%,12.199402%);fill-opacity:1;" d="M 1529.519531 624.140625 C 1529.519531 636.085938 1526.101563 645.375 1519.261719 652.011719 C 1512.421875 658.644531 1501.46875 661.964844 1489.488281 661.964844 C 1481.910156 661.964844 1476.019531 660.128906 1471.808594 656.460938 C 1467.601563 652.789063 1465.488281 647.441406 1465.488281 640.417969 C 1465.488281 631.441406 1468.871094 624.824219 1475.640625 620.570313 C 1482.398438 616.316406 1493.429688 613.914063 1508.730469 613.367188 L 1529.519531 612.550781 Z M 1537.808594 555.40625 C 1530.5 548.613281 1517.730469 545.21875 1502.589844 545.21875 C 1495.089844 545.21875 1487.609375 546.195313 1480.160156 548.144531 C 1474 549.757813 1468.25 551.875 1462.910156 554.496094 C 1458.558594 556.199219 1460.800781 559.300781 1460.800781 559.300781 L 1464.160156 567.730469 C 1464.160156 567.730469 1464.71875 571.324219 1470.058594 568.960938 C 1481.609375 563.847656 1492.058594 561.261719 1501.429688 561.261719 C 1510.859375 561.261719 1519.261719 563.660156 1523.550781 568.464844 C 1527.839844 573.265625 1529.980469 580.699219 1529.980469 590.769531 L 1529.980469 598.730469 L 1506.878906 599.433594 C 1465.839844 600.683594 1445.328125 614.265625 1445.328125 640.183594 C 1445.328125 652.285156 1448.898438 661.609375 1456.050781 668.167969 C 1463.191406 674.726563 1473.070313 678.003906 1485.660156 678.003906 C 1495.089844 678.003906 1504.550781 677.878906 1510.851563 675.027344 C 1517.148438 672.179688 1525.011719 667.035156 1531.351563 658.992188 L 1533.070313 658.992188 C 1533.070313 658.992188 1533.441406 669.113281 1533.609375 673.667969 C 1533.699219 675.972656 1535.890625 676.027344 1535.890625 676.027344 L 1547.03125 676.027344 C 1547.03125 676.027344 1549.398438 676.113281 1549.398438 673.691406 C 1549.398438 659.800781 1549.398438 588.074219 1549.398438 588.074219 C 1549.398438 573.089844 1545.109375 562.199219 1537.808594 555.40625 Z M 1397.578125 602.714844 C 1386.609375 598.574219 1379.191406 595.414063 1375.320313 593.230469 C 1371.460938 591.042969 1368.660156 588.738281 1366.921875 586.320313 C 1365.179688 583.898438 1364.308594 580.972656 1364.308594 577.535156 C 1364.308594 572.464844 1366.628906 568.480469 1371.269531 565.59375 C 1375.898438 562.707031 1382.78125 561.261719 1391.898438 561.261719 C 1400.949219 561.261719 1410.910156 563.289063 1421.789063 567.34375 C 1426.871094 569.464844 1428.128906 565.601563 1428.128906 565.601563 L 1431.5 557.796875 C 1431.5 557.796875 1433.96875 553.238281 1428.78125 551.550781 C 1417.191406 547.175781 1405.359375 544.984375 1393.289063 544.984375 C 1378.609375 544.984375 1367.050781 548.011719 1358.628906 554.058594 C 1350.210938 560.109375 1346 568.363281 1346 578.824219 C 1346 584.679688 1347.210938 589.714844 1349.648438 593.929688 C 1352.078125 598.144531 1355.789063 601.914063 1360.78125 605.230469 C 1365.761719 608.550781 1374.160156 612.433594 1385.988281 616.882813 C 1398.429688 621.722656 1406.789063 625.917969 1411.078125 629.46875 C 1415.371094 633.019531 1417.519531 637.296875 1417.519531 642.289063 C 1417.519531 648.925781 1414.808594 653.863281 1409.398438 657.105469 C 1403.988281 660.34375 1396.261719 661.964844 1386.21875 661.964844 C 1379.730469 661.964844 1372.988281 661.066406 1365.988281 659.269531 C 1363.480469 658.625 1359.789063 657.378906 1356.910156 656.359375 C 1351.890625 654.4375 1350.878906 658.871094 1350.878906 658.871094 L 1348.210938 665.394531 C 1348.210938 665.394531 1345.480469 669.652344 1350.21875 671.894531 C 1359.261719 675.96875 1371.101563 678.003906 1385.761719 678.003906 C 1401.671875 678.003906 1414.039063 674.765625 1422.851563 668.285156 C 1431.660156 661.808594 1436.058594 652.59375 1436.058594 640.652344 C 1436.058594 632.144531 1433.421875 625.078125 1428.121094 619.457031 C 1422.828125 613.835938 1412.648438 608.257813 1397.578125 602.714844 Z M 1886.5 556.417969 C 1878.769531 548.980469 1869.730469 545.261719 1854.429688 545.261719 C 1845.699219 545.261719 1837.78125 546.992188 1830.679688 550.460938 C 1823.570313 553.925781 1818.039063 558.8125 1814.101563 565.125 L 1813.179688 565.125 C 1813.179688 565.125 1811.371094 555.363281 1810.5 550.597656 C 1810 547.777344 1807.101563 548.097656 1807.101563 548.097656 L 1797.558594 548.097656 C 1797.558594 548.097656 1794.320313 547.679688 1794.320313 551.335938 L 1794.320313 672.074219 C 1794.320313 676.253906 1797.441406 675.964844 1797.441406 675.964844 L 1810.28125 675.964844 C 1810.28125 675.964844 1813.460938 676.273438 1813.460938 672.089844 C 1813.460938 658.789063 1813.460938 608.476563 1813.460938 608.476563 C 1813.460938 591.804688 1816.730469 579.847656 1822.910156 572.601563 C 1829.089844 565.355469 1838.828125 561.734375 1852.121094 561.734375 C 1862.160156 561.734375 1867.058594 564.304688 1871.78125 569.445313 C 1876.488281 574.589844 1878.851563 582.378906 1878.851563 592.816406 C 1878.851563 592.816406 1878.851563 655.582031 1878.851563 672.023438 C 1878.851563 676.375 1881.949219 675.964844 1881.949219 675.964844 L 1894.839844 675.964844 C 1894.839844 675.964844 1898.011719 676.375 1898.011719 672.015625 C 1898.011719 655.328125 1898.011719 592.113281 1898.011719 592.113281 C 1898.011719 575.757813 1894.21875 563.859375 1886.5 556.417969 Z M 1783.980469 548.019531 L 1770.25 548.019531 C 1770.25 548.019531 1767.53125 547.53125 1766.238281 551.121094 C 1751.101563 593.054688 1741.328125 619.71875 1736.910156 632.402344 C 1732.390625 645.398438 1729.699219 653.964844 1728.851563 658.101563 L 1727.921875 658.101563 C 1726.839844 652.796875 1723.199219 641.242188 1717.019531 623.449219 C 1717.019531 623.449219 1695.789063 565.023438 1690.71875 551 C 1689.519531 547.621094 1686.539063 548.019531 1686.539063 548.019531 L 1672.160156 548.019531 C 1672.160156 548.019531 1668.710938 547.433594 1670.25 551.324219 C 1677.019531 569.257813 1709.289063 654.871094 1716.019531 672.699219 C 1717.058594 675.457031 1719.210938 675.964844 1719.210938 675.964844 L 1737.378906 675.964844 C 1737.378906 675.964844 1739.941406 675.46875 1740.949219 672.78125 C 1747.609375 655.15625 1779.898438 569.476563 1786.730469 551.386719 C 1788.429688 547.429688 1783.980469 548.019531 1783.980469 548.019531 Z M 1646.78125 624.140625 C 1646.78125 636.085938 1643.359375 645.375 1636.519531 652.011719 C 1629.691406 658.644531 1618.730469 661.964844 1606.75 661.964844 C 1599.179688 661.964844 1593.289063 660.128906 1589.078125 656.460938 C 1584.859375 652.789063 1582.761719 647.441406 1582.761719 640.417969 C 1582.761719 631.441406 1586.140625 624.824219 1592.898438 620.570313 C 1599.660156 616.316406 1610.691406 613.914063 1626 613.367188 L 1646.78125 612.550781 Z M 1655.070313 555.40625 C 1647.769531 548.613281 1635 545.21875 1619.851563 545.21875 C 1612.359375 545.21875 1604.878906 546.195313 1597.421875 548.144531 C 1591.261719 549.757813 1585.519531 551.875 1580.171875 554.496094 C 1575.820313 556.199219 1578.070313 559.300781 1578.070313 559.300781 L 1581.421875 567.730469 C 1581.421875 567.730469 1581.988281 571.324219 1587.320313 568.960938 C 1598.878906 563.847656 1609.320313 561.261719 1618.691406 561.261719 C 1628.121094 561.261719 1636.519531 563.660156 1640.808594 568.464844 C 1645.101563 573.265625 1647.25 580.699219 1647.25 590.769531 L 1647.25 598.730469 L 1624.140625 599.433594 C 1583.109375 600.683594 1562.589844 614.265625 1562.589844 640.183594 C 1562.589844 652.285156 1566.160156 661.609375 1573.308594 668.167969 C 1580.460938 674.726563 1590.328125 678.003906 1602.929688 678.003906 C 1612.359375 678.003906 1621.808594 677.878906 1628.109375 675.027344 C 1634.410156 672.179688 1642.269531 667.035156 1648.609375 658.992188 L 1650.328125 658.992188 C 1650.328125 658.992188 1650.699219 669.113281 1650.878906 673.667969 C 1650.96875 675.972656 1653.148438 676.027344 1653.148438 676.027344 L 1664.289063 676.027344 C 1664.289063 676.027344 1666.671875 676.113281 1666.671875 673.691406 C 1666.671875 659.800781 1666.671875 588.074219 1666.671875 588.074219 C 1666.671875 573.089844 1662.371094 562.199219 1655.070313 555.40625 Z M 1254.460938 536.992188 C 1254.460938 536.992188 1234.109375 536.992188 1223.378906 536.992188 C 1222.03125 536.992188 1220.28125 538.199219 1220.558594 540.40625 C 1230.949219 603.734375 1204.808594 665.582031 1199.289063 677.703125 C 1198.511719 679.671875 1198.308594 679.046875 1198.269531 677.746094 C 1190.441406 611 1177.78125 582.988281 1157.480469 538.71875 C 1156.679688 537.371094 1155.53125 537.0625 1154.199219 537.027344 C 1147.488281 537.027344 1132.988281 542.355469 1132.988281 563.824219 C 1132.988281 563.824219 1132.988281 576.375 1132.988281 583.351563 C 1133.011719 585.113281 1133.710938 585.667969 1134.390625 586.179688 C 1176.96875 616.550781 1188.28125 657.625 1191.5 681.546875 C 1191.929688 684.234375 1192.328125 684.980469 1194.230469 685.007813 L 1203.71875 685.007813 C 1205.710938 685.007813 1206.070313 683.648438 1206.710938 681.875 C 1213.128906 660.070313 1231.210938 619.082031 1279.351563 593.992188 C 1280.828125 593.199219 1281.011719 591.960938 1281.011719 591.285156 C 1281.011719 583.515625 1281.011719 563.824219 1281.011719 563.824219 C 1281.011719 547.792969 1270.179688 536.992188 1254.460938 536.992188 Z M 1136.28125 652.992188 C 1133.558594 652.46875 1132.988281 655.191406 1132.988281 655.917969 L 1132.988281 657.714844 C 1132.988281 675.058594 1143.738281 685.007813 1159.820313 685.007813 C 1159.820313 685.007813 1169.890625 685.007813 1180.410156 685.007813 C 1182.941406 685 1184.21875 681.996094 1182.75 679.933594 C 1170.011719 663.0625 1152.570313 658.011719 1136.28125 652.992188 Z M 1277.871094 647.9375 C 1257.460938 654.765625 1236.011719 661.183594 1218.820313 679.648438 C 1216.25 682.765625 1219.519531 685.007813 1220.941406 685.007813 C 1234.738281 685.007813 1254.460938 685.007813 1254.460938 685.007813 C 1270.210938 685.007813 1281.011719 673.429688 1281.011719 657.714844 C 1281.011719 657.714844 1281.011719 657.242188 1281.011719 650.730469 C 1281.011719 649.953125 1280.539063 647.144531 1277.871094 647.9375 Z M 1295.980469 637.9375 C 1295.980469 655.804688 1295.980469 667.132813 1292.941406 676.75 C 1289.121094 687.25 1283.25 693.125 1272.738281 696.949219 C 1263.128906 699.988281 1251.800781 699.988281 1233.929688 699.988281 L 1180.050781 699.988281 C 1162.179688 699.988281 1150.851563 699.988281 1141.230469 696.949219 C 1130.730469 693.125 1124.851563 687.25 1121.03125 676.75 C 1117.988281 667.132813 1117.988281 655.804688 1117.988281 637.9375 L 1117.988281 584.0625 C 1117.988281 566.195313 1117.988281 554.867188 1121.03125 545.25 C 1124.851563 534.75 1130.730469 528.875 1141.230469 525.054688 C 1150.851563 522.011719 1162.179688 522.011719 1180.050781 522.011719 L 1233.929688 522.011719 C 1251.800781 522.011719 1263.128906 522.011719 1272.738281 525.054688 C 1283.25 528.875 1289.121094 534.75 1292.941406 545.25 C 1295.980469 554.867188 1295.980469 566.195313 1295.980469 584.0625 Z M 1280.339844 511.519531 C 1269.210938 508 1258.871094 508 1238.191406 508 L 1175.828125 508 C 1155.148438 508 1144.808594 508 1133.671875 511.519531 C 1121.519531 515.941406 1111.949219 525.515625 1107.519531 537.667969 C 1104 548.800781 1104 559.140625 1104 579.820313 L 1104 642.179688 C 1104 662.859375 1104 673.199219 1107.519531 684.332031 C 1111.949219 696.484375 1121.519531 706.058594 1133.671875 710.480469 C 1144.808594 714 1155.148438 714 1175.828125 714 L 1238.191406 714 C 1258.871094 714 1269.210938 714 1280.339844 710.480469 C 1292.5 706.058594 1302.070313 696.484375 1306.488281 684.332031 C 1310.011719 673.199219 1310.011719 662.859375 1310.011719 642.179688 L 1310.011719 579.820313 C 1310.011719 559.140625 1310.011719 548.800781 1306.488281 537.667969 C 1302.070313 525.515625 1292.5 515.941406 1280.339844 511.519531 "/>
<path style=" stroke:none;fill-rule:evenodd;fill:rgb(16.499329%,17.999268%,21.598816%);fill-opacity:1;" d="M 0 404 L 0 818 L 1000 818 L 1000 404 L 0 404 "/>
<path style=" stroke:none;fill-rule:evenodd;fill:rgb(100%,100%,100%);fill-opacity:1;" d="M 529.519531 624.140625 C 529.519531 636.085938 526.097656 645.375 519.261719 652.011719 C 512.421875 658.644531 501.464844 661.964844 489.488281 661.964844 C 481.914063 661.964844 476.023438 660.128906 471.8125 656.460938 C 467.597656 652.789063 465.492188 647.441406 465.492188 640.417969 C 465.492188 631.441406 468.875 624.824219 475.636719 620.570313 C 482.398438 616.316406 493.429688 613.914063 508.730469 613.367188 L 529.519531 612.550781 Z M 537.808594 555.40625 C 530.503906 548.613281 517.734375 545.21875 502.589844 545.21875 C 495.089844 545.21875 487.613281 546.195313 480.15625 548.144531 C 474 549.757813 468.25 551.875 462.910156 554.496094 C 458.558594 556.199219 460.804688 559.300781 460.804688 559.300781 L 464.15625 567.730469 C 464.15625 567.730469 464.722656 571.324219 470.058594 568.960938 C 481.609375 563.847656 492.058594 561.261719 501.429688 561.261719 C 510.855469 561.261719 519.261719 563.660156 523.550781 568.464844 C 527.839844 573.265625 529.980469 580.699219 529.980469 590.769531 L 529.980469 598.730469 L 506.875 599.433594 C 465.84375 600.683594 445.324219 614.265625 445.324219 640.183594 C 445.324219 652.285156 448.898438 661.609375 456.046875 668.167969 C 463.195313 674.726563 473.066406 678.003906 485.664063 678.003906 C 495.089844 678.003906 504.550781 677.878906 510.847656 675.027344 C 517.144531 672.179688 525.007813 667.035156 531.347656 658.992188 L 533.070313 658.992188 C 533.070313 658.992188 533.4375 669.113281 533.613281 673.667969 C 533.703125 675.972656 535.886719 676.027344 535.886719 676.027344 L 547.023438 676.027344 C 547.023438 676.027344 549.402344 676.113281 549.402344 673.691406 C 549.402344 659.800781 549.402344 588.074219 549.402344 588.074219 C 549.402344 573.089844 545.109375 562.199219 537.808594 555.40625 Z M 886.496094 556.417969 C 878.769531 548.980469 869.730469 545.261719 854.433594 545.261719 C 845.703125 545.261719 837.785156 546.992188 830.675781 550.460938 C 823.566406 553.925781 818.046875 558.8125 814.105469 565.125 L 813.179688 565.125 C 813.179688 565.125 811.371094 555.363281 810.503906 550.597656 C 809.996094 547.777344 807.101563 548.097656 807.101563 548.097656 L 797.5625 548.097656 C 797.5625 548.097656 794.320313 547.679688 794.320313 551.335938 L 794.320313 672.074219 C 794.320313 676.253906 797.4375 675.964844 797.4375 675.964844 L 810.28125 675.964844 C 810.28125 675.964844 813.457031 676.273438 813.457031 672.089844 C 813.457031 658.789063 813.457031 608.476563 813.457031 608.476563 C 813.457031 591.804688 816.730469 579.847656 822.910156 572.601563 C 829.09375 565.355469 838.828125 561.734375 852.117188 561.734375 C 862.15625 561.734375 867.066406 564.304688 871.777344 569.445313 C 876.488281 574.589844 878.847656 582.378906 878.847656 592.816406 C 878.847656 592.816406 878.847656 655.582031 878.847656 672.023438 C 878.847656 676.375 881.953125 675.964844 881.953125 675.964844 L 894.835938 675.964844 C 894.835938 675.964844 898.011719 676.375 898.011719 672.015625 C 898.011719 655.328125 898.011719 592.113281 898.011719 592.113281 C 898.011719 575.757813 894.222656 563.859375 886.496094 556.417969 Z M 397.578125 602.714844 C 386.605469 598.574219 379.1875 595.414063 375.324219 593.230469 C 371.457031 591.042969 368.65625 588.738281 366.917969 586.320313 C 365.179688 583.898438 364.3125 580.972656 364.3125 577.535156 C 364.3125 572.464844 366.628906 568.480469 371.265625 565.59375 C 375.902344 562.707031 382.78125 561.261719 391.898438 561.261719 C 400.949219 561.261719 410.914063 563.289063 421.792969 567.34375 C 426.867188 569.464844 428.125 565.601563 428.125 565.601563 L 431.503906 557.796875 C 431.503906 557.796875 433.964844 553.238281 428.78125 551.550781 C 417.191406 547.175781 405.363281 544.984375 393.289063 544.984375 C 378.605469 544.984375 367.054688 548.011719 358.632813 554.058594 C 350.207031 560.109375 345.996094 568.363281 345.996094 578.824219 C 345.996094 584.679688 347.214844 589.714844 349.648438 593.929688 C 352.082031 598.144531 355.792969 601.914063 360.777344 605.230469 C 365.761719 608.550781 374.164063 612.433594 385.988281 616.882813 C 398.429688 621.722656 406.792969 625.917969 411.082031 629.46875 C 415.371094 633.019531 417.515625 637.296875 417.515625 642.289063 C 417.515625 648.925781 414.8125 653.863281 409.402344 657.105469 C 403.992188 660.34375 396.265625 661.964844 386.21875 661.964844 C 379.726563 661.964844 372.984375 661.066406 365.992188 659.269531 C 363.480469 658.625 359.789063 657.378906 356.914063 656.359375 C 351.894531 654.4375 350.886719 658.871094 350.886719 658.871094 L 348.207031 665.394531 C 348.207031 665.394531 345.480469 669.652344 350.21875 671.894531 C 359.257813 675.96875 371.105469 678.003906 385.757813 678.003906 C 401.675781 678.003906 414.039063 674.765625 422.847656 668.285156 C 431.660156 661.808594 436.0625 652.59375 436.0625 640.652344 C 436.0625 632.144531 433.414063 625.078125 428.121094 619.457031 C 422.828125 613.835938 412.648438 608.257813 397.578125 602.714844 Z M 783.976563 548.019531 L 770.246094 548.019531 C 770.246094 548.019531 767.53125 547.53125 766.234375 551.121094 C 751.101563 593.054688 741.324219 619.71875 736.910156 632.402344 C 732.386719 645.398438 729.699219 653.964844 728.847656 658.101563 L 727.921875 658.101563 C 726.835938 652.796875 723.203125 641.242188 717.019531 623.449219 C 717.019531 623.449219 695.789063 565.023438 690.722656 551 C 689.515625 547.621094 686.542969 548.019531 686.542969 548.019531 L 672.160156 548.019531 C 672.160156 548.019531 668.714844 547.433594 670.246094 551.324219 C 677.019531 569.257813 709.285156 654.871094 716.015625 672.699219 C 717.058594 675.457031 719.214844 675.964844 719.214844 675.964844 L 737.378906 675.964844 C 737.378906 675.964844 739.9375 675.46875 740.953125 672.78125 C 747.609375 655.15625 779.898438 569.476563 786.730469 551.386719 C 788.425781 547.429688 783.976563 548.019531 783.976563 548.019531 Z M 277.867188 647.9375 C 257.460938 654.765625 236.011719 661.183594 218.820313 679.648438 C 216.253906 682.765625 219.519531 685.007813 220.941406 685.007813 C 234.742188 685.007813 254.457031 685.007813 254.457031 685.007813 C 270.203125 685.007813 281.011719 673.429688 281.011719 657.714844 C 281.011719 657.714844 281.011719 657.242188 281.011719 650.730469 C 281.011719 649.953125 280.542969 647.144531 277.867188 647.9375 Z M 646.78125 624.140625 C 646.78125 636.085938 643.363281 645.375 636.523438 652.011719 C 629.683594 658.644531 618.730469 661.964844 606.753906 661.964844 C 599.179688 661.964844 593.285156 660.128906 589.074219 656.460938 C 584.863281 652.789063 582.757813 647.441406 582.757813 640.417969 C 582.757813 631.441406 586.136719 624.824219 592.902344 620.570313 C 599.660156 616.316406 610.695313 613.914063 625.996094 613.367188 L 646.78125 612.550781 Z M 655.070313 555.40625 C 647.769531 548.613281 634.996094 545.21875 619.851563 545.21875 C 612.355469 545.21875 604.878906 546.195313 597.421875 548.144531 C 591.265625 549.757813 585.515625 551.875 580.175781 554.496094 C 575.824219 556.199219 578.066406 559.300781 578.066406 559.300781 L 581.417969 567.730469 C 581.417969 567.730469 581.988281 571.324219 587.320313 568.960938 C 598.875 563.847656 609.324219 561.261719 618.691406 561.261719 C 628.121094 561.261719 636.523438 563.660156 640.8125 568.464844 C 645.101563 573.265625 647.246094 580.699219 647.246094 590.769531 L 647.246094 598.730469 L 624.140625 599.433594 C 583.105469 600.683594 562.589844 614.265625 562.589844 640.183594 C 562.589844 652.285156 566.160156 661.609375 573.3125 668.167969 C 580.457031 674.726563 590.332031 678.003906 602.929688 678.003906 C 612.355469 678.003906 621.8125 677.878906 628.113281 675.027344 C 634.410156 672.179688 642.273438 667.035156 648.609375 658.992188 L 650.335938 658.992188 C 650.335938 658.992188 650.703125 669.113281 650.878906 673.667969 C 650.96875 675.972656 653.148438 676.027344 653.148438 676.027344 L 664.289063 676.027344 C 664.289063 676.027344 666.664063 676.113281 666.664063 673.691406 C 666.664063 659.800781 666.664063 588.074219 666.664063 588.074219 C 666.664063 573.089844 662.375 562.199219 655.070313 555.40625 Z M 295.984375 637.9375 C 295.984375 655.804688 295.984375 667.132813 292.945313 676.75 C 289.121094 687.25 283.246094 693.125 272.742188 696.949219 C 263.125 699.988281 251.796875 699.988281 233.929688 699.988281 L 180.046875 699.988281 C 162.179688 699.988281 150.851563 699.988281 141.230469 696.949219 C 130.730469 693.125 124.855469 687.25 121.03125 676.75 C 117.992188 667.132813 117.992188 655.804688 117.992188 637.9375 L 117.992188 584.0625 C 117.992188 566.195313 117.992188 554.867188 121.03125 545.25 C 124.855469 534.75 130.730469 528.875 141.230469 525.054688 C 150.851563 522.011719 162.179688 522.011719 180.046875 522.011719 L 233.929688 522.011719 C 251.796875 522.011719 263.125 522.011719 272.742188 525.054688 C 283.246094 528.875 289.121094 534.75 292.945313 545.25 C 295.984375 554.867188 295.984375 566.195313 295.984375 584.0625 Z M 280.34375 511.519531 C 269.210938 508 258.871094 508 238.1875 508 L 175.828125 508 C 155.144531 508 144.804688 508 133.675781 511.519531 C 121.519531 515.941406 111.945313 525.515625 107.523438 537.667969 C 104.003906 548.800781 104.003906 559.140625 104.003906 579.820313 L 104.003906 642.179688 C 104.003906 662.859375 104.003906 673.199219 107.523438 684.332031 C 111.945313 696.484375 121.519531 706.058594 133.675781 710.480469 C 144.804688 714 155.144531 714 175.828125 714 L 238.1875 714 C 258.871094 714 269.210938 714 280.34375 710.480469 C 292.496094 706.058594 302.070313 696.484375 306.492188 684.332031 C 310.011719 673.199219 310.011719 662.859375 310.011719 642.179688 L 310.011719 579.820313 C 310.011719 559.140625 310.011719 548.800781 306.492188 537.667969 C 302.070313 525.515625 292.496094 515.941406 280.34375 511.519531 Z M 136.28125 652.992188 C 133.566406 652.46875 132.992188 655.191406 132.992188 655.917969 L 132.992188 657.714844 C 132.992188 675.058594 143.734375 685.007813 159.816406 685.007813 C 159.816406 685.007813 169.894531 685.007813 180.414063 685.007813 C 182.941406 685 184.214844 681.996094 182.753906 679.933594 C 170.007813 663.0625 152.566406 658.011719 136.28125 652.992188 Z M 254.457031 536.992188 C 254.457031 536.992188 234.105469 536.992188 223.382813 536.992188 C 222.027344 536.992188 220.277344 538.199219 220.558594 540.40625 C 230.945313 603.734375 204.816406 665.582031 199.296875 677.703125 C 198.507813 679.671875 198.304688 679.046875 198.265625 677.746094 C 190.441406 611 177.78125 582.988281 157.480469 538.71875 C 156.683594 537.371094 155.53125 537.0625 154.203125 537.027344 C 147.484375 537.027344 132.992188 542.355469 132.992188 563.824219 C 132.992188 563.824219 132.992188 576.375 132.992188 583.351563 C 133.007813 585.113281 133.714844 585.667969 134.386719 586.179688 C 176.96875 616.550781 188.277344 657.625 191.5 681.546875 C 191.929688 684.234375 192.332031 684.980469 194.234375 685.007813 L 203.722656 685.007813 C 205.707031 685.007813 206.074219 683.648438 206.707031 681.875 C 213.125 660.070313 231.207031 619.082031 279.351563 593.992188 C 280.828125 593.199219 281.011719 591.960938 281.011719 591.285156 C 281.011719 583.515625 281.011719 563.824219 281.011719 563.824219 C 281.011719 547.792969 270.183594 536.992188 254.457031 536.992188 "/>
<path style=" stroke:none;fill-rule:evenodd;fill:rgb(11.799622%,12.199402%,12.199402%);fill-opacity:1;" d="M 1000 0 L 1000 414 L 2000 414 L 2000 0 L 1000 0 "/>
<path style=" stroke:none;fill-rule:evenodd;fill:rgb(100%,100%,100%);fill-opacity:1;" d="M 1529.519531 220.140625 C 1529.519531 232.085938 1526.101563 241.375 1519.261719 248.007813 C 1512.421875 254.644531 1501.46875 257.960938 1489.488281 257.960938 C 1481.910156 257.960938 1476.019531 256.128906 1471.808594 252.460938 C 1467.601563 248.789063 1465.488281 243.441406 1465.488281 236.417969 C 1465.488281 227.441406 1468.871094 220.824219 1475.640625 216.570313 C 1482.398438 212.316406 1493.429688 209.914063 1508.730469 209.367188 L 1529.519531 208.550781 Z M 1537.808594 151.40625 C 1530.5 144.613281 1517.730469 141.21875 1502.589844 141.21875 C 1495.089844 141.21875 1487.609375 142.195313 1480.160156 144.144531 C 1474 145.757813 1468.25 147.875 1462.910156 150.496094 C 1458.558594 152.199219 1460.800781 155.300781 1460.800781 155.300781 L 1464.160156 163.730469 C 1464.160156 163.730469 1464.71875 167.324219 1470.058594 164.960938 C 1481.609375 159.847656 1492.058594 157.261719 1501.429688 157.261719 C 1510.859375 157.261719 1519.261719 159.660156 1523.550781 164.460938 C 1527.839844 169.261719 1529.980469 176.699219 1529.980469 186.769531 L 1529.980469 194.730469 L 1506.878906 195.433594 C 1465.839844 196.683594 1445.328125 210.265625 1445.328125 236.183594 C 1445.328125 248.285156 1448.898438 257.609375 1456.050781 264.167969 C 1463.191406 270.726563 1473.070313 274.003906 1485.660156 274.003906 C 1495.089844 274.003906 1504.550781 273.878906 1510.851563 271.027344 C 1517.148438 268.179688 1525.011719 263.035156 1531.351563 254.992188 L 1533.070313 254.992188 C 1533.070313 254.992188 1533.441406 265.113281 1533.609375 269.667969 C 1533.699219 271.972656 1535.890625 272.027344 1535.890625 272.027344 L 1547.03125 272.027344 C 1547.03125 272.027344 1549.398438 272.113281 1549.398438 269.695313 C 1549.398438 255.800781 1549.398438 184.074219 1549.398438 184.074219 C 1549.398438 169.089844 1545.109375 158.199219 1537.808594 151.40625 Z M 1397.578125 198.714844 C 1386.609375 194.574219 1379.191406 191.414063 1375.320313 189.226563 C 1371.460938 187.042969 1368.660156 184.738281 1366.921875 182.320313 C 1365.179688 179.898438 1364.308594 176.972656 1364.308594 173.535156 C 1364.308594 168.464844 1366.628906 164.480469 1371.269531 161.59375 C 1375.898438 158.707031 1382.78125 157.261719 1391.898438 157.261719 C 1400.949219 157.261719 1410.910156 159.289063 1421.789063 163.34375 C 1426.871094 165.464844 1428.128906 161.601563 1428.128906 161.601563 L 1431.5 153.796875 C 1431.5 153.796875 1433.96875 149.238281 1428.78125 147.550781 C 1417.191406 143.175781 1405.359375 140.984375 1393.289063 140.984375 C 1378.609375 140.984375 1367.050781 144.011719 1358.628906 150.058594 C 1350.210938 156.109375 1346 164.367188 1346 174.824219 C 1346 180.679688 1347.210938 185.714844 1349.648438 189.929688 C 1352.078125 194.144531 1355.789063 197.914063 1360.78125 201.230469 C 1365.761719 204.550781 1374.160156 208.433594 1385.988281 212.882813 C 1398.429688 217.722656 1406.789063 221.917969 1411.078125 225.46875 C 1415.371094 229.023438 1417.519531 233.296875 1417.519531 238.289063 C 1417.519531 244.925781 1414.808594 249.863281 1409.398438 253.101563 C 1403.988281 256.34375 1396.261719 257.960938 1386.21875 257.960938 C 1379.730469 257.960938 1372.988281 257.066406 1365.988281 255.269531 C 1363.480469 254.625 1359.789063 253.378906 1356.910156 252.359375 C 1351.890625 250.4375 1350.878906 254.871094 1350.878906 254.871094 L 1348.210938 261.394531 C 1348.210938 261.394531 1345.480469 265.652344 1350.21875 267.894531 C 1359.261719 271.96875 1371.101563 274.003906 1385.761719 274.003906 C 1401.671875 274.003906 1414.039063 270.765625 1422.851563 264.285156 C 1431.660156 257.808594 1436.058594 248.59375 1436.058594 236.652344 C 1436.058594 228.144531 1433.421875 221.078125 1428.121094 215.457031 C 1422.828125 209.835938 1412.648438 204.257813 1397.578125 198.714844 Z M 1783.980469 144.019531 L 1770.25 144.019531 C 1770.25 144.019531 1767.53125 143.53125 1766.238281 147.121094 C 1751.101563 189.054688 1741.328125 215.71875 1736.910156 228.402344 C 1732.390625 241.398438 1729.699219 249.964844 1728.851563 254.101563 L 1727.921875 254.101563 C 1726.839844 248.796875 1723.199219 237.242188 1717.019531 219.449219 C 1717.019531 219.449219 1695.789063 161.023438 1690.71875 147 C 1689.519531 143.625 1686.539063 144.019531 1686.539063 144.019531 L 1672.160156 144.019531 C 1672.160156 144.019531 1668.710938 143.429688 1670.25 147.324219 C 1677.019531 165.257813 1709.289063 250.871094 1716.019531 268.699219 C 1717.058594 271.457031 1719.210938 271.964844 1719.210938 271.964844 L 1737.378906 271.964844 C 1737.378906 271.964844 1739.941406 271.46875 1740.949219 268.78125 C 1747.609375 251.15625 1779.898438 165.476563 1786.730469 147.382813 C 1788.429688 143.429688 1783.980469 144.019531 1783.980469 144.019531 Z M 1646.78125 220.140625 C 1646.78125 232.085938 1643.359375 241.375 1636.519531 248.007813 C 1629.691406 254.644531 1618.730469 257.960938 1606.75 257.960938 C 1599.179688 257.960938 1593.289063 256.128906 1589.078125 252.460938 C 1584.859375 248.789063 1582.761719 243.441406 1582.761719 236.417969 C 1582.761719 227.441406 1586.140625 220.824219 1592.898438 216.570313 C 1599.660156 212.316406 1610.691406 209.914063 1626 209.367188 L 1646.78125 208.550781 Z M 1655.070313 151.40625 C 1647.769531 144.613281 1635 141.21875 1619.851563 141.21875 C 1612.359375 141.21875 1604.878906 142.195313 1597.421875 144.144531 C 1591.261719 145.757813 1585.519531 147.875 1580.171875 150.496094 C 1575.820313 152.199219 1578.070313 155.300781 1578.070313 155.300781 L 1581.421875 163.730469 C 1581.421875 163.730469 1581.988281 167.324219 1587.320313 164.960938 C 1598.878906 159.847656 1609.320313 157.261719 1618.691406 157.261719 C 1628.121094 157.261719 1636.519531 159.660156 1640.808594 164.460938 C 1645.101563 169.261719 1647.25 176.699219 1647.25 186.769531 L 1647.25 194.730469 L 1624.140625 195.433594 C 1583.109375 196.683594 1562.589844 210.265625 1562.589844 236.183594 C 1562.589844 248.285156 1566.160156 257.609375 1573.308594 264.167969 C 1580.460938 270.726563 1590.328125 274.003906 1602.929688 274.003906 C 1612.359375 274.003906 1621.808594 273.878906 1628.109375 271.027344 C 1634.410156 268.179688 1642.269531 263.035156 1648.609375 254.992188 L 1650.328125 254.992188 C 1650.328125 254.992188 1650.699219 265.113281 1650.878906 269.667969 C 1650.96875 271.972656 1653.148438 272.027344 1653.148438 272.027344 L 1664.289063 272.027344 C 1664.289063 272.027344 1666.671875 272.113281 1666.671875 269.695313 C 1666.671875 255.800781 1666.671875 184.074219 1666.671875 184.074219 C 1666.671875 169.089844 1662.371094 158.199219 1655.070313 151.40625 Z M 1886.5 152.417969 C 1878.769531 144.980469 1869.730469 141.261719 1854.429688 141.261719 C 1845.699219 141.261719 1837.78125 142.992188 1830.679688 146.460938 C 1823.570313 149.925781 1818.039063 154.8125 1814.101563 161.125 L 1813.179688 161.125 C 1813.179688 161.125 1811.371094 151.363281 1810.5 146.597656 C 1810 143.777344 1807.101563 144.09375 1807.101563 144.09375 L 1797.558594 144.09375 C 1797.558594 144.09375 1794.320313 143.679688 1794.320313 147.335938 L 1794.320313 268.074219 C 1794.320313 272.253906 1797.441406 271.964844 1797.441406 271.964844 L 1810.28125 271.964844 C 1810.28125 271.964844 1813.460938 272.273438 1813.460938 268.089844 C 1813.460938 254.789063 1813.460938 204.476563 1813.460938 204.476563 C 1813.460938 187.804688 1816.730469 175.847656 1822.910156 168.601563 C 1829.089844 161.355469 1838.828125 157.734375 1852.121094 157.734375 C 1862.160156 157.734375 1867.058594 160.304688 1871.78125 165.445313 C 1876.488281 170.589844 1878.851563 178.378906 1878.851563 188.816406 C 1878.851563 188.816406 1878.851563 251.582031 1878.851563 268.023438 C 1878.851563 272.375 1881.949219 271.964844 1881.949219 271.964844 L 1894.839844 271.964844 C 1894.839844 271.964844 1898.011719 272.375 1898.011719 268.015625 C 1898.011719 251.328125 1898.011719 188.117188 1898.011719 188.117188 C 1898.011719 171.757813 1894.21875 159.859375 1886.5 152.417969 Z M 1136.28125 248.996094 C 1133.558594 248.46875 1132.988281 251.191406 1132.988281 251.917969 L 1132.988281 253.714844 C 1132.988281 271.058594 1143.738281 281.007813 1159.820313 281.007813 C 1159.820313 281.007813 1169.890625 281.007813 1180.410156 281.007813 C 1182.941406 281 1184.21875 277.996094 1182.75 275.933594 C 1170.011719 259.0625 1152.570313 254.011719 1136.28125 248.996094 Z M 1277.871094 243.9375 C 1257.460938 250.765625 1236.011719 257.183594 1218.820313 275.648438 C 1216.25 278.765625 1219.519531 281.007813 1220.941406 281.007813 C 1234.738281 281.007813 1254.460938 281.007813 1254.460938 281.007813 C 1270.210938 281.007813 1281.011719 269.429688 1281.011719 253.714844 C 1281.011719 253.714844 1281.011719 253.242188 1281.011719 246.730469 C 1281.011719 245.953125 1280.539063 243.144531 1277.871094 243.9375 Z M 1254.460938 132.992188 C 1254.460938 132.992188 1234.109375 132.992188 1223.378906 132.992188 C 1222.03125 132.992188 1220.28125 134.199219 1220.558594 136.40625 C 1230.949219 199.734375 1204.808594 261.582031 1199.289063 273.703125 C 1198.511719 275.671875 1198.308594 275.046875 1198.269531 273.746094 C 1190.441406 207 1177.78125 178.988281 1157.480469 134.71875 C 1156.679688 133.371094 1155.53125 133.066406 1154.199219 133.027344 C 1147.488281 133.027344 1132.988281 138.355469 1132.988281 159.824219 C 1132.988281 159.824219 1132.988281 172.375 1132.988281 179.351563 C 1133.011719 181.113281 1133.710938 181.667969 1134.390625 182.179688 C 1176.96875 212.550781 1188.28125 253.625 1191.5 277.546875 C 1191.929688 280.234375 1192.328125 280.980469 1194.230469 281.007813 L 1203.71875 281.007813 C 1205.710938 281.007813 1206.070313 279.652344 1206.710938 277.875 C 1213.128906 256.074219 1231.210938 215.082031 1279.351563 189.992188 C 1280.828125 189.199219 1281.011719 187.960938 1281.011719 187.285156 C 1281.011719 179.515625 1281.011719 159.824219 1281.011719 159.824219 C 1281.011719 143.792969 1270.179688 132.992188 1254.460938 132.992188 Z M 1295.980469 233.9375 C 1295.980469 251.804688 1295.980469 263.132813 1292.941406 272.75 C 1289.121094 283.25 1283.25 289.125 1272.738281 292.949219 C 1263.128906 295.988281 1251.800781 295.988281 1233.929688 295.988281 L 1180.050781 295.988281 C 1162.179688 295.988281 1150.851563 295.988281 1141.230469 292.949219 C 1130.730469 289.125 1124.851563 283.25 1121.03125 272.75 C 1117.988281 263.132813 1117.988281 251.804688 1117.988281 233.9375 L 1117.988281 180.0625 C 1117.988281 162.195313 1117.988281 150.867188 1121.03125 141.25 C 1124.851563 130.75 1130.730469 124.875 1141.230469 121.050781 C 1150.851563 118.011719 1162.179688 118.011719 1180.050781 118.011719 L 1233.929688 118.011719 C 1251.800781 118.011719 1263.128906 118.011719 1272.738281 121.050781 C 1283.25 124.875 1289.121094 130.75 1292.941406 141.25 C 1295.980469 150.867188 1295.980469 162.195313 1295.980469 180.0625 Z M 1280.339844 107.519531 C 1269.210938 104 1258.871094 104 1238.191406 104 L 1175.828125 104 C 1155.148438 104 1144.808594 104 1133.671875 107.519531 C 1121.519531 111.941406 1111.949219 121.515625 1107.519531 133.667969 C 1104 144.800781 1104 155.140625 1104 175.820313 L 1104 238.179688 C 1104 258.859375 1104 269.199219 1107.519531 280.332031 C 1111.949219 292.484375 1121.519531 302.058594 1133.671875 306.480469 C 1144.808594 310 1155.148438 310 1175.828125 310 L 1238.191406 310 C 1258.871094 310 1269.210938 310 1280.339844 306.480469 C 1292.5 302.058594 1302.070313 292.484375 1306.488281 280.332031 C 1310.011719 269.199219 1310.011719 258.859375 1310.011719 238.179688 L 1310.011719 175.820313 C 1310.011719 155.140625 1310.011719 144.800781 1306.488281 133.667969 C 1302.070313 121.515625 1292.5 111.941406 1280.339844 107.519531 "/>
<path style=" stroke:none;fill-rule:evenodd;fill:rgb(17.599487%,70.599365%,35.299683%);fill-opacity:1;" d="M 0 0 L 0 414 L 1000 414 L 1000 0 L 0 0 "/>
<path style=" stroke:none;fill-rule:evenodd;fill:rgb(100%,100%,100%);fill-opacity:1;" d="M 529.519531 220.140625 C 529.519531 232.085938 526.097656 241.375 519.261719 248.007813 C 512.421875 254.644531 501.464844 257.960938 489.488281 257.960938 C 481.914063 257.960938 476.023438 256.128906 471.8125 252.460938 C 467.597656 248.789063 465.492188 243.441406 465.492188 236.417969 C 465.492188 227.441406 468.875 220.824219 475.636719 216.570313 C 482.398438 212.316406 493.429688 209.914063 508.730469 209.367188 L 529.519531 208.550781 Z M 537.808594 151.40625 C 530.503906 144.613281 517.734375 141.21875 502.589844 141.21875 C 495.089844 141.21875 487.613281 142.195313 480.15625 144.144531 C 474 145.757813 468.25 147.875 462.910156 150.496094 C 458.558594 152.199219 460.804688 155.300781 460.804688 155.300781 L 464.15625 163.730469 C 464.15625 163.730469 464.722656 167.324219 470.058594 164.960938 C 481.609375 159.847656 492.058594 157.261719 501.429688 157.261719 C 510.855469 157.261719 519.261719 159.660156 523.550781 164.460938 C 527.839844 169.261719 529.980469 176.699219 529.980469 186.769531 L 529.980469 194.730469 L 506.875 195.433594 C 465.84375 196.683594 445.324219 210.265625 445.324219 236.183594 C 445.324219 248.285156 448.898438 257.609375 456.046875 264.167969 C 463.195313 270.726563 473.066406 274.003906 485.664063 274.003906 C 495.089844 274.003906 504.550781 273.878906 510.847656 271.027344 C 517.144531 268.179688 525.007813 263.035156 531.347656 254.992188 L 533.070313 254.992188 C 533.070313 254.992188 533.4375 265.113281 533.613281 269.667969 C 533.703125 271.972656 535.886719 272.027344 535.886719 272.027344 L 547.023438 272.027344 C 547.023438 272.027344 549.402344 272.113281 549.402344 269.695313 C 549.402344 255.800781 549.402344 184.074219 549.402344 184.074219 C 549.402344 169.089844 545.109375 158.199219 537.808594 151.40625 Z M 397.578125 198.714844 C 386.605469 194.574219 379.1875 191.414063 375.324219 189.226563 C 371.457031 187.042969 368.65625 184.738281 366.917969 182.320313 C 365.179688 179.898438 364.3125 176.972656 364.3125 173.535156 C 364.3125 168.464844 366.628906 164.480469 371.265625 161.59375 C 375.902344 158.707031 382.78125 157.261719 391.898438 157.261719 C 400.949219 157.261719 410.914063 159.289063 421.792969 163.34375 C 426.867188 165.464844 428.125 161.601563 428.125 161.601563 L 431.503906 153.796875 C 431.503906 153.796875 433.964844 149.238281 428.78125 147.550781 C 417.191406 143.175781 405.363281 140.984375 393.289063 140.984375 C 378.605469 140.984375 367.054688 144.011719 358.632813 150.058594 C 350.207031 156.109375 345.996094 164.367188 345.996094 174.824219 C 345.996094 180.679688 347.214844 185.714844 349.648438 189.929688 C 352.082031 194.144531 355.792969 197.914063 360.777344 201.230469 C 365.761719 204.550781 374.164063 208.433594 385.988281 212.882813 C 398.429688 217.722656 406.792969 221.917969 411.082031 225.46875 C 415.371094 229.023438 417.515625 233.296875 417.515625 238.289063 C 417.515625 244.925781 414.8125 249.863281 409.402344 253.101563 C 403.992188 256.34375 396.265625 257.960938 386.21875 257.960938 C 379.726563 257.960938 372.984375 257.066406 365.992188 255.269531 C 363.480469 254.625 359.789063 253.378906 356.914063 252.359375 C 351.894531 250.4375 350.886719 254.871094 350.886719 254.871094 L 348.207031 261.394531 C 348.207031 261.394531 345.480469 265.652344 350.21875 267.894531 C 359.257813 271.96875 371.105469 274.003906 385.757813 274.003906 C 401.675781 274.003906 414.039063 270.765625 422.847656 264.285156 C 431.660156 257.808594 436.0625 248.59375 436.0625 236.652344 C 436.0625 228.144531 433.414063 221.078125 428.121094 215.457031 C 422.828125 209.835938 412.648438 204.257813 397.578125 198.714844 Z M 646.78125 220.140625 C 646.78125 232.085938 643.363281 241.375 636.523438 248.007813 C 629.683594 254.644531 618.730469 257.960938 606.753906 257.960938 C 599.179688 257.960938 593.285156 256.128906 589.074219 252.460938 C 584.863281 248.789063 582.757813 243.441406 582.757813 236.417969 C 582.757813 227.441406 586.136719 220.824219 592.902344 216.570313 C 599.660156 212.316406 610.695313 209.914063 625.996094 209.367188 L 646.78125 208.550781 Z M 655.070313 151.40625 C 647.769531 144.613281 634.996094 141.21875 619.851563 141.21875 C 612.355469 141.21875 604.878906 142.195313 597.421875 144.144531 C 591.265625 145.757813 585.515625 147.875 580.175781 150.496094 C 575.824219 152.199219 578.066406 155.300781 578.066406 155.300781 L 581.417969 163.730469 C 581.417969 163.730469 581.988281 167.324219 587.320313 164.960938 C 598.875 159.847656 609.324219 157.261719 618.691406 157.261719 C 628.121094 157.261719 636.523438 159.660156 640.8125 164.460938 C 645.101563 169.261719 647.246094 176.699219 647.246094 186.769531 L 647.246094 194.730469 L 624.140625 195.433594 C 583.105469 196.683594 562.589844 210.265625 562.589844 236.183594 C 562.589844 248.285156 566.160156 257.609375 573.3125 264.167969 C 580.457031 270.726563 590.332031 274.003906 602.929688 274.003906 C 612.355469 274.003906 621.8125 273.878906 628.113281 271.027344 C 634.410156 268.179688 642.273438 263.035156 648.609375 254.992188 L 650.335938 254.992188 C 650.335938 254.992188 650.703125 265.113281 650.878906 269.667969 C 650.96875 271.972656 653.148438 272.027344 653.148438 272.027344 L 664.289063 272.027344 C 664.289063 272.027344 666.664063 272.113281 666.664063 269.695313 C 666.664063 255.800781 666.664063 184.074219 666.664063 184.074219 C 666.664063 169.089844 662.375 158.199219 655.070313 151.40625 Z M 783.976563 144.019531 L 770.246094 144.019531 C 770.246094 144.019531 767.53125 143.53125 766.234375 147.121094 C 751.101563 189.054688 741.324219 215.71875 736.910156 228.402344 C 732.386719 241.398438 729.699219 249.964844 728.847656 254.101563 L 727.921875 254.101563 C 726.835938 248.796875 723.203125 237.242188 717.019531 219.449219 C 717.019531 219.449219 695.789063 161.023438 690.722656 147 C 689.515625 143.625 686.542969 144.019531 686.542969 144.019531 L 672.160156 144.019531 C 672.160156 144.019531 668.714844 143.429688 670.246094 147.324219 C 677.019531 165.257813 709.285156 250.871094 716.015625 268.699219 C 717.058594 271.457031 719.214844 271.964844 719.214844 271.964844 L 737.378906 271.964844 C 737.378906 271.964844 739.9375 271.46875 740.953125 268.78125 C 747.609375 251.15625 779.898438 165.476563 786.730469 147.382813 C 788.425781 143.429688 783.976563 144.019531 783.976563 144.019531 Z M 886.496094 152.417969 C 878.769531 144.980469 869.730469 141.261719 854.433594 141.261719 C 845.703125 141.261719 837.785156 142.992188 830.675781 146.460938 C 823.566406 149.925781 818.046875 154.8125 814.105469 161.125 L 813.179688 161.125 C 813.179688 161.125 811.371094 151.363281 810.503906 146.597656 C 809.996094 143.777344 807.101563 144.09375 807.101563 144.09375 L 797.5625 144.09375 C 797.5625 144.09375 794.320313 143.679688 794.320313 147.335938 L 794.320313 268.074219 C 794.320313 272.253906 797.4375 271.964844 797.4375 271.964844 L 810.28125 271.964844 C 810.28125 271.964844 813.457031 272.273438 813.457031 268.089844 C 813.457031 254.789063 813.457031 204.476563 813.457031 204.476563 C 813.457031 187.804688 816.730469 175.847656 822.910156 168.601563 C 829.09375 161.355469 838.828125 157.734375 852.117188 157.734375 C 862.15625 157.734375 867.066406 160.304688 871.777344 165.445313 C 876.488281 170.589844 878.847656 178.378906 878.847656 188.816406 C 878.847656 188.816406 878.847656 251.582031 878.847656 268.023438 C 878.847656 272.375 881.953125 271.964844 881.953125 271.964844 L 894.835938 271.964844 C 894.835938 271.964844 898.011719 272.375 898.011719 268.015625 C 898.011719 251.328125 898.011719 188.117188 898.011719 188.117188 C 898.011719 171.757813 894.222656 159.859375 886.496094 152.417969 Z M 295.984375 233.9375 C 295.984375 251.804688 295.984375 263.132813 292.945313 272.75 C 289.121094 283.25 283.246094 289.125 272.742188 292.949219 C 263.125 295.988281 251.796875 295.988281 233.929688 295.988281 L 180.046875 295.988281 C 162.179688 295.988281 150.851563 295.988281 141.230469 292.949219 C 130.730469 289.125 124.855469 283.25 121.03125 272.75 C 117.992188 263.132813 117.992188 251.804688 117.992188 233.9375 L 117.992188 180.0625 C 117.992188 162.195313 117.992188 150.867188 121.03125 141.25 C 124.855469 130.75 130.730469 124.875 141.230469 121.050781 C 150.851563 118.011719 162.179688 118.011719 180.046875 118.011719 L 233.929688 118.011719 C 251.796875 118.011719 263.125 118.011719 272.742188 121.050781 C 283.246094 124.875 289.121094 130.75 292.945313 141.25 C 295.984375 150.867188 295.984375 162.195313 295.984375 180.0625 Z M 280.34375 107.519531 C 269.210938 104 258.871094 104 238.1875 104 L 175.828125 104 C 155.144531 104 144.804688 104 133.675781 107.519531 C 121.519531 111.941406 111.945313 121.515625 107.523438 133.667969 C 104.003906 144.800781 104.003906 155.140625 104.003906 175.820313 L 104.003906 238.179688 C 104.003906 258.859375 104.003906 269.199219 107.523438 280.332031 C 111.945313 292.484375 121.519531 302.058594 133.675781 306.480469 C 144.804688 310 155.144531 310 175.828125 310 L 238.1875 310 C 258.871094 310 269.210938 310 280.34375 306.480469 C 292.496094 302.058594 302.070313 292.484375 306.492188 280.332031 C 310.011719 269.199219 310.011719 258.859375 310.011719 238.179688 L 310.011719 175.820313 C 310.011719 155.140625 310.011719 144.800781 306.492188 133.667969 C 302.070313 121.515625 292.496094 111.941406 280.34375 107.519531 Z M 277.867188 243.9375 C 257.460938 250.765625 236.011719 257.183594 218.820313 275.648438 C 216.253906 278.765625 219.519531 281.007813 220.941406 281.007813 C 234.742188 281.007813 254.457031 281.007813 254.457031 281.007813 C 270.203125 281.007813 281.011719 269.429688 281.011719 253.714844 C 281.011719 253.714844 281.011719 253.242188 281.011719 246.730469 C 281.011719 245.953125 280.542969 243.144531 277.867188 243.9375 Z M 136.28125 248.996094 C 133.566406 248.46875 132.992188 251.191406 132.992188 251.917969 L 132.992188 253.714844 C 132.992188 271.058594 143.734375 281.007813 159.816406 281.007813 C 159.816406 281.007813 169.894531 281.007813 180.414063 281.007813 C 182.941406 281 184.214844 277.996094 182.753906 275.933594 C 170.007813 259.0625 152.566406 254.011719 136.28125 248.996094 Z M 254.457031 132.992188 C 254.457031 132.992188 234.105469 132.992188 223.382813 132.992188 C 222.027344 132.992188 220.277344 134.199219 220.558594 136.40625 C 230.945313 199.734375 204.816406 261.582031 199.296875 273.703125 C 198.507813 275.671875 198.304688 275.046875 198.265625 273.746094 C 190.441406 207 177.78125 178.988281 157.480469 134.71875 C 156.683594 133.371094 155.53125 133.066406 154.203125 133.027344 C 147.484375 133.027344 132.992188 138.355469 132.992188 159.824219 C 132.992188 159.824219 132.992188 172.375 132.992188 179.351563 C 133.007813 181.113281 133.714844 181.667969 134.386719 182.179688 C 176.96875 212.550781 188.277344 253.625 191.5 277.546875 C 191.929688 280.234375 192.332031 280.980469 194.234375 281.007813 L 203.722656 281.007813 C 205.707031 281.007813 206.074219 279.652344 206.707031 277.875 C 213.125 256.074219 231.207031 215.082031 279.351563 189.992188 C 280.828125 189.199219 281.011719 187.960938 281.011719 187.285156 C 281.011719 179.515625 281.011719 159.824219 281.011719 159.824219 C 281.011719 143.792969 270.183594 132.992188 254.457031 132.992188 "/>
</g>
</svg>
