<?xml version="1.0" encoding="utf-8"?>
<!-- Generator: Adobe Illustrator 26.0.3, SVG Export Plug-In . SVG Version: 6.00 Build 0)  -->
<svg version="1.0" id="katman_1" xmlns="http://www.w3.org/2000/svg" xmlns:xlink="http://www.w3.org/1999/xlink" x="0px" y="0px"
	 viewBox="0 0 800 600" style="enable-background:new 0 0 800 600;" xml:space="preserve">
<style type="text/css">
	.st0{fill:#1ECCB0;}
	.st1{fill:#FFFFFF;}
	.st2{fill:#141414;}
</style>
<path class="st0" d="M105,299.6c0,46.9,38.4,85.3,85.3,85.3s85.3-38.4,85.3-85.3s-38.4-85.3-85.3-85.3S105,252.7,105,299.6z"/>
<path class="st1" d="M178.6,348.1c-3.2-5.3-7.5-10.1-12.8-13.3s-10.7-5.9-17.1-7.5l0,0c-0.5,0-1.1,0-1.6,0.5s-0.5,1.1-0.5,1.6
	s0,1.1,0.5,1.1c6.9,10.1,17.6,17.6,29.3,20.8h0.5c0.5,0,0.5,0,1.1,0c0,0,0.5,0,0.5-0.5l0.5-0.5c0,0,0-0.5,0-1.1
	S179.1,348.1,178.6,348.1L178.6,348.1z"/>
<path class="st1" d="M241.5,285.2v-0.5c-2.7-9.6-8-18.1-15.5-24.5s-16-11.2-25.6-12.8h-0.5c-0.5,0-1.1,0-1.6,0.5
	c-0.5,0.5-0.5,1.1-0.5,1.6v0.5c4.8,29.3,1.6,59.2-9.1,86.9c0,0.5-0.5,0.5-0.5,1.1s-0.5,0.5-1.1,0.5s-0.5,0-1.1,0c0,0-0.5,0-0.5-0.5
	l-0.5-0.5c0,0,0-0.5,0-1.1c0,0-0.5-3.7-0.5-5.3c-3.2-25.6-10.7-50.1-22.9-73c0-0.5-0.5-0.5-0.5-0.5l-0.5-0.5c0,0-0.5,0-1.1,0
	s-0.5,0-1.1,0l0,0c-7.5,5.9-13.3,13.3-17.1,22.4c0,0.5,0,1.1,0,1.6s0.5,1.1,1.1,1.1c11.7,7.5,21.3,17.1,28.3,29.3
	c6.9,11.7,10.7,25.6,11.2,38.9c0,0.5,0,1.1,0.5,1.6s1.1,0.5,1.1,0.5c1.1,0,2.7,0.5,3.7,0.5c0.5,0,1.1,0,1.6-0.5s0.5-0.5,0.5-1.1
	c2.7-13.9,8.5-27.2,17.6-38.4c9.1-11.2,20.3-19.7,33.6-25.6c0.5,0,0.5-0.5,1.1-0.5C241.5,285.7,241.5,285.7,241.5,285.2z"/>
<path class="st1" d="M236.7,325.7c0-0.5,0-1.1-0.5-1.6c-0.5-0.5-1.1-0.5-1.6-0.5H234c-16.5,3.7-31.5,12.8-42.1,25.6
	c-0.5,0.5-0.5,1.1-0.5,1.6s0,1.1,0.5,1.6s1.1,0.5,1.6,0.5l0,0c8.5-0.5,17.1-3.2,24.5-7.5s13.9-10.7,18.1-18.1
	C236.7,326.8,236.7,326.2,236.7,325.7L236.7,325.7z"/>
<path class="st2" d="M319.9,331.6c-4.3,0-8.5-0.5-12.3-2.7c-3.2-1.6-5.9-4.3-8-7.5c-1.6-3.7-2.7-7.5-2.7-11.2v-1.6h14.9
	c0,2.7,0.5,4.8,1.6,6.9c1.1,1.1,3.2,2.1,4.8,2.1c1.6,0,3.7,0,5.3-1.1c1.1-0.5,1.6-2.1,2.1-3.2c0.5-1.6,0.5-3.2,0.5-4.8v-45.3h16.5
	v44.8c0.5,6.4-1.6,12.8-5.9,17.6c-2.1,2.1-5.3,3.7-8,4.8C325.7,331,323.1,331.6,319.9,331.6L319.9,331.6z"/>
<path class="st2" d="M359.3,273.5c-1.6,0-3.2-0.5-4.3-1.1s-2.1-1.6-3.2-2.7c-0.5-1.1-1.1-2.7-1.1-4.3s0.5-3.2,1.1-4.3
	s1.6-2.1,3.2-2.7s2.7-1.1,4.3-1.1c1.6,0,3.2,0.5,4.3,1.1c1.1,0.5,2.1,1.6,3.2,2.7c0.5,1.1,1.1,2.7,1.1,4.3s-0.5,2.7-1.1,4.3
	c-0.5,1.1-1.6,2.1-3.2,2.7C362.5,272.9,360.9,273.5,359.3,273.5L359.3,273.5z M351.8,330v-49.6h14.9V330H351.8z"/>
<path class="st2" d="M399.8,331.6c-4.8,0-9.6-1.1-13.3-3.2s-6.9-5.3-9.1-9.1c-2.1-4.3-3.2-9.1-3.2-13.9s1.1-9.6,3.2-13.9
	c2.1-3.7,4.8-6.9,9.1-9.1c4.3-2.1,9.1-3.2,13.3-3.2c4.8,0,9.1,1.1,13.3,3.2c3.7,2.1,6.9,5.3,8.5,9.1c2.1,4.3,3.2,9.1,3.2,13.9
	s-1.1,9.6-3.2,13.9c-2.1,3.7-5.3,6.9-9.1,9.1S404.1,331.6,399.8,331.6z M399.8,320.4c2.1,0,4.3-0.5,5.9-1.6c1.6-1.6,3.2-3.2,3.7-5.3
	c1.1-2.7,1.1-5.3,1.1-8s-0.5-5.3-1.1-7.5c-0.5-2.1-1.6-3.7-3.2-5.3c-1.6-1.6-3.7-2.1-5.9-2.1c-2.1,0-3.7,0.5-5.3,1.6
	s-2.7,3.2-3.7,4.8c-1.1,2.7-1.1,5.3-1.1,8s0.5,5.3,1.1,8c0.5,2.1,1.6,3.7,3.7,5.3C395.6,319.3,397.7,319.8,399.8,320.4L399.8,320.4z
	"/>
<path class="st2" d="M458.5,331.6c-4.8,0-9.6-0.5-13.9-2.1s-8-3.7-10.7-6.9s-4.3-7.5-4.3-11.2v-1.1h16.5c0,1.6,0.5,3.7,1.6,4.8
	c1.1,1.6,2.7,2.1,4.8,2.7c2.1,0.5,4.3,1.1,6.4,1.1c2.7,0,5.9-0.5,8-1.6c1.1-0.5,1.6-1.1,2.7-2.1c0.5-1.1,1.1-2.1,0.5-3.2
	c0-1.1-0.5-2.7-1.1-3.2c-1.1-1.1-2.1-2.1-3.2-2.7c-2.1-1.1-4.3-1.6-6.4-2.1l-12.3-3.2c-3.2-0.5-5.9-2.1-8.5-4.3
	c-2.1-1.6-4.3-3.7-5.3-5.9c-1.1-2.7-1.6-5.3-1.6-8c0-4.3,1.1-8,3.7-11.2s5.9-5.3,9.6-6.9c3.7-2.1,8.5-2.7,12.8-2.1
	c4.8,0,9.1,0.5,13.3,2.1c3.7,1.1,6.9,3.7,9.1,6.4c2.1,3.2,3.7,6.9,3.7,10.7h-16c0-1.1-0.5-2.1-1.1-3.2c-0.5-1.1-1.1-1.6-2.1-2.1
	c-2.7-1.1-5.3-2.1-8-1.6c-2.1,0-4.8,0.5-6.9,1.6c-1.1,0.5-1.6,1.1-2.1,1.6c-0.5,0.5-0.5,1.6-0.5,2.7s0,2.1,0.5,3.2
	c0.5,1.1,1.6,1.6,2.7,2.1c1.6,0.5,3.7,1.6,5.3,1.6l8,2.1c4.3,1.1,8,2.7,11.7,4.3c3.2,1.6,5.3,3.2,7.5,5.9s3.2,6.4,2.7,9.6
	c0,4.3-1.1,8-3.2,11.7c-2.7,3.2-5.9,5.9-9.6,7.5C468.6,330.5,463.3,331.6,458.5,331.6L458.5,331.6z"/>
<path class="st2" d="M508.1,331.6c-3.2,0-6.4-0.5-9.1-1.6s-4.8-3.2-5.9-5.3c-1.6-2.7-2.1-5.3-2.1-8.5c0-2.7,0.5-4.8,1.6-6.9
	s2.7-3.7,4.8-5.3c5.9-3.2,12.3-4.3,18.1-3.7h7.5v-1.6c0-1.6,0-3.7-0.5-5.3c-0.5-1.1-1.6-2.1-2.7-3.2c-1.6-0.5-3.2-1.1-4.3-1.1
	c-2.1,0-4.3,0.5-5.9,1.6c-0.5,0.5-1.1,1.1-1.6,1.6c-0.5,0.5-0.5,1.6-0.5,2.1h-14.4c0-3.2,1.1-5.9,3.2-8c2.1-2.7,4.8-4.3,8-5.3
	c3.7-1.1,8-1.6,12.3-1.6c4.3,0,8.5,0.5,12.3,2.1c3.2,1.1,5.3,3.7,6.9,6.4c1.6,3.7,2.7,7.5,2.1,11.2V330h-13.3l-0.5-5.9
	c-1.6,2.1-3.2,4.3-5.9,5.3C515,330.5,511.3,331.6,508.1,331.6L508.1,331.6z M513.4,320.9c1.6,0,3.7-0.5,5.3-1.1s2.7-2.1,3.2-3.2
	c1.1-1.6,1.1-3.7,1.1-5.3v-3.2h-5.3c-2.1,0-4.3,0-6.4,0.5c-1.6,0.5-2.7,1.1-3.7,2.1c-0.5,0.5-1.1,1.1-1.1,1.6c0,0.5-0.5,1.6-0.5,2.1
	c0,1.1,0,1.6,0.5,2.7c0.5,1.1,1.1,1.6,1.6,2.1C509.7,320.4,511.3,320.9,513.4,320.9L513.4,320.9z"/>
<path class="st2" d="M560.8,331.6c-3.2,0-6.4-0.5-9.1-1.6s-4.8-3.2-5.9-5.3c-1.6-2.7-2.1-5.3-2.1-8.5c0-2.7,0.5-4.8,1.6-6.9
	c1.1-2.1,2.7-3.7,4.8-5.3c5.9-3.2,12.3-4.3,18.7-4.3h7.5V298c0-1.6,0-3.7-0.5-5.3c-0.5-1.1-1.6-2.1-2.7-2.7
	c-1.6-0.5-3.2-1.1-4.3-1.1c-2.1,0-4.3,0.5-5.9,1.6c-0.5,0.5-1.1,1.1-1.6,1.6s-0.5,1.6-0.5,2.1h-14.4c0-3.2,1.1-5.9,3.2-8
	c2.1-2.7,4.8-4.3,8-5.3c3.7-1.1,8-1.6,12.3-1.6c4.3,0,8.5,0.5,12.3,2.1c3.2,1.1,5.3,3.7,6.9,6.4c1.6,3.7,2.7,7.5,2.1,11.2V330h-13.9
	l-0.5-5.9c-1.6,2.1-3.2,4.3-5.9,5.3C567.8,330.5,564,331.6,560.8,331.6L560.8,331.6z M566.2,320.9c1.6,0,3.7-0.5,5.3-1.1
	c1.6-0.5,2.7-2.1,3.2-3.2c1.1-1.6,1.1-3.7,1.1-5.3v-3.2h-5.3c-2.1,0-4.3,0-6.4,0.5c-1.6,0.5-2.7,1.1-3.7,2.1
	c-0.5,0.5-1.1,1.1-1.1,1.6c0,0.5-0.5,1.6-0.5,2.1c0,1.1,0,1.6,0.5,2.7c0.5,1.1,1.1,1.6,1.6,2.1C562.4,320.4,564,320.9,566.2,320.9
	L566.2,320.9z"/>
<path class="st2" d="M609.9,330l-16-49.6h16l9.1,33.1l9.1-33.1h14.4l-16,49.6H609.9z"/>
<path class="st2" d="M647.7,330v-49.6h14.4v6.9c1.6-2.7,3.7-4.8,6.4-5.9c2.7-1.6,5.3-2.1,8.5-2.1s6.4,0.5,9.6,2.1
	c2.7,1.6,4.8,3.7,5.9,6.4c1.6,3.2,2.1,6.9,2.1,10.7v32h-14.9v-27.7c0-3.2-0.5-6.4-2.1-9.1c-0.5-1.1-1.6-1.6-2.7-2.1
	s-2.1-0.5-3.2-0.5s-2.7,0-3.7,0.5c-1.1,0.5-2.1,1.1-3.2,2.1c-1.6,2.7-2.7,5.9-2.1,9.1V330C662.7,330,647.7,330,647.7,330z"/>
</svg>
